<?xml version="1.0" encoding="utf-8"?>
<!-- Ruben Mesta Generator: Adobe Illustrator 22.1.0, SVG Export Plug-In . SVG Version: 6.00 Build 0)  -->
<svg version="1.1" id="Layer_1" xmlns="http://www.w3.org/2000/svg" xmlns:xlink="http://www.w3.org/1999/xlink" x="0px" y="0px"
	 viewBox="0 0 173 63" style="enable-background:new 0 0 173 63;" xml:space="preserve">
<style type="text/css">
	.st0{fill:#FFFFFF;}
</style>
<path id="Shape_4_copy" class="st0" d="M35.1,58.4l-0.3-0.1c-0.3-0.1-0.6-0.3-0.7-0.7c0-0.4,0.3-0.7,0.7-0.7c0,0,0,0,0,0
	c0.3,0,0.6,0.2,0.8,0.5l0.4-0.3c-0.2-0.4-0.7-0.7-1.1-0.7c-0.6,0-1.2,0.4-1.2,1.1c0,0,0,0,0,0c0,0.5,0.4,1,1,1.1l0.3,0.1
	c0.4,0.1,0.8,0.4,0.8,0.9c0,0.5-0.4,0.9-0.9,0.9c-0.5,0-0.8-0.4-0.9-0.8l-0.5,0.1c0.1,0.8,0.7,1.3,1.5,1.3c0.8-0.1,1.3-0.7,1.3-1.5
	C36.1,59,35.6,58.5,35.1,58.4z M41.5,60.9h2.3v-0.5H42v-1.7h1.7v-0.5H42v-1.3h1.8v-0.5h-2.3V60.9z M48.9,60.9h0.5l0.5-1.3h1.9
	l0.5,1.3h0.5l-2-4.7L48.9,60.9z M50.2,59.2l0.8-1.8l0.7,1.8H50.2z M58.1,60.9h0.5v-2.2h1.5v-0.5h-1.5v-1.3h1.5v-0.5h-2L58.1,60.9
	L58.1,60.9z M67.7,56.4c-1.3,0-2.3,1-2.3,2.3c0,1.3,1,2.3,2.3,2.3c1.3,0,2.3-1,2.3-2.3C70,57.4,68.9,56.4,67.7,56.4z M67.7,60.5
	c-1,0-1.9-0.8-1.9-1.8s0.8-1.9,1.8-1.9s1.9,0.8,1.9,1.8c0,0,0,0,0,0C69.5,59.7,68.7,60.5,67.7,60.5L67.7,60.5z M77.4,56.4
	c-1.3,0-2.3,1-2.3,2.3c0,1.3,1,2.3,2.3,2.3c1.3,0,2.3-1,2.3-2.3C79.7,57.4,78.7,56.4,77.4,56.4z M77.4,60.5c-1,0-1.9-0.8-1.9-1.8
	c0-1,0.8-1.9,1.8-1.9c1,0,1.9,0.8,1.9,1.8c0,0,0,0,0,0C79.2,59.7,78.4,60.5,77.4,60.5L77.4,60.5z M87.6,57c-0.5-0.4-1.1-0.6-1.7-0.5
	H85v4.5h0.8c0.6,0.1,1.3-0.1,1.7-0.6c0.9-0.9,1-2.3,0.1-3.3C87.7,57.1,87.6,57,87.6,57L87.6,57z M87.3,60c-0.4,0.3-0.9,0.5-1.4,0.5
	h-0.4v-3.5h0.4c0.5,0,1,0.1,1.4,0.4C88,58.1,88,59.2,87.3,60C87.3,60,87.3,60,87.3,60z M102.4,58.7v0.5h1.3
	c-0.1,0.8-0.8,1.4-1.6,1.4c-0.5,0-0.9-0.2-1.3-0.6c-0.3-0.3-0.5-0.8-0.5-1.3c0-1,0.8-1.8,1.8-1.9c0.6,0,1.2,0.3,1.5,0.8l0.4-0.3
	c-0.4-0.6-1.1-1-1.9-1c-1.3,0-2.3,1-2.3,2.3s1,2.3,2.3,2.3c0.6,0,1.2-0.3,1.6-0.7c0.4-0.4,0.5-1,0.5-1.6L102.4,58.7L102.4,58.7z
	 M111.9,57.7c0-1-0.8-1.2-1.6-1.2h-0.6v4.5h0.5v-2h0.1l1.3,2h0.6l-1.4-2C111.4,58.9,111.9,58.4,111.9,57.7
	C111.9,57.7,111.9,57.7,111.9,57.7L111.9,57.7z M110.1,58.5v-1.6h0.2c0.6,0,1.1,0.1,1.1,0.8c0,0.7-0.6,0.8-1.1,0.8H110.1L110.1,58.5
	z M117.5,56.5h0.5v4.5h-0.5C117.5,60.9,117.5,56.5,117.5,56.5z M124.1,56.5h-0.5v4.5h1.7v-0.5h-1.2V56.5L124.1,56.5z M131,56.5h-0.5
	v4.5h1.7v-0.5H131L131,56.5L131,56.5z M137.3,60.9h2.3v-0.5h-1.8v-1.7h1.7v-0.5h-1.7v-1.3h1.8v-0.5h-2.3
	C137.3,56.5,137.3,60.9,137.3,60.9z M9.8,46.5c3.7,0.6,7.6,1.1,11.5,1.5c5,0.5,10.1,0.9,15.2,1.1c-3.4-0.4-6.8-0.8-10.1-1.3
	C20,47.6,14.8,47.1,9.8,46.5z M19.5,46.6c-1.1-0.2-2.1-0.4-3.2-0.6v-0.1c1.5,0.3,3,0.5,4.6,0.7c0.9,0,2,0,3,0.1
	c6.2,0.2,13.4,0,20-0.3c6.3-0.2,12.6-0.9,18.8-1.8c4.4-0.7,6.8-1.2,6.8-1.2S67,44,62.5,44.8C56.3,46,50,46.7,43.7,47.1
	c-6.5,0.3-13,0.4-19.5,0c1.5,0.2,3.1,0.4,4.7,0.5c2.3,0.1,4.8,0.1,7.4,0.1c0.9,0,1.8,0,2.7,0c12.6-0.1,20.4-1.4,32.1-3.1
	c19.3-2.7,25.8-5.6,45.9-5.6c5.5,0,12,0.2,20.1,0.7c11.7,0.7,23.3,2.3,34.7,4.8c0.2,0,0.5,0.1,0.7,0.1v-0.2
	c-8.3-2.3-21.2-5.2-29.3-5.8c-38.2-2.7-57.8,3.4-91.9,5.7c-17,1-34,1.1-51,0.2v0.2c1.1,0.2,2.2,0.5,3.4,0.7
	c3.5,0.5,6.8,0.9,10.4,1.2C15.2,46.7,17.1,46.6,19.5,46.6z M14.5,46.8c3,0.3,6,0.5,9.5,0.7c-1-0.2-1.9-0.3-2.9-0.5
	C18.1,46.8,15.8,46.8,14.5,46.8z M117.1,39.3c-19.8,0-26.1,2.8-45.6,5.6c-11.7,1.6-19.7,3-32.4,3.1c-0.9,0-1.8,0-2.7,0
	c-1,0-1.9,0-2.9,0c6.5,0.4,15.3,0.6,23.4,0.6c3-0.2,5.9-0.4,8.8-0.6c1.9-0.1,3.8-0.3,5.7-0.5c5.5-0.8,10.8-1.8,16.1-2.8
	c9.7-2,19.6-3.2,29.5-3.8c8.2-0.3,16.4-0.2,24.6,0.3c5.1,0.2,10.1,0.6,15.1,1.1c-1.1-0.1-2.3-0.1-3.4-0.2c4.6,0.5,9.1,1,13.5,1.6
	c-9.8-1.9-19.7-3.2-29.7-3.8C129,39.5,122.5,39.3,117.1,39.3z M65.9,48.1c-1.8,0.1-3.7,0.3-5.6,0.4c1.2,0,2.4-0.1,3.5-0.1
	c1.4-0.1,2.9-0.3,4.3-0.5C67.3,48,66.6,48,65.9,48.1z M51.8,43.9c34.7-2.4,54.6-8.5,93.4-5.8c3.5,0.3,6.9,0.8,10.4,1.4
	c-4-0.8-8.1-1.4-12.2-1.8c-27.3-1.9-45.1,0.6-65.5,3.1v0.1h-0.5c-8,1-16.5,1.9-26,2.6c-17,1-34,1.1-51,0.2v0.2
	c0.5,0.1,1,0.2,1.6,0.3C18.6,45,35.2,44.9,51.8,43.9z M36.5,49.2c0.3,0,0.5,0.1,0.8,0.1c0.1,0,0.2,0,0.3,0c0.6,0,1.3,0,1.9,0
	C38.5,49.2,37.5,49.2,36.5,49.2z M85.2,46.4c-4,0.6-8.3,1.1-13,1.6c-2.4,0.2-5.2,0.4-8.4,0.5c-1.9,0.2-3.9,0.4-5.9,0.5
	c-4.6,0.3-9.3,0.4-13.9,0.4c-1.6,0-3.2,0.1-4.8,0.1c11.5,1.2,23.2,1.4,34.7,0.7c9.9-0.8,19.8-2.2,29.6-4.2c6-1.1,12-2.2,18.4-2.9
	c-5.2,0.3-10.4,0.8-15.4,1.3C99.3,44.9,92.3,45.7,85.2,46.4L85.2,46.4z M153.2,42.2l-0.2,0c-3.8-0.4-7.6-0.7-11.5-0.9
	c-2.3-0.1-4.5-0.2-6.8-0.2c-19.2-0.3-31.2,2.5-46.1,4.8c5.9-0.6,11.7-1.2,17.6-1.7c6.4-0.6,12.9-1.2,19.5-1.5
	c2.4-0.2,4.8-0.4,7.2-0.5C139.7,41.8,146.5,41.9,153.2,42.2z M0.5,45.1L0.5,45.1c-0.2,0-0.4,0-0.5,0.1c-0.1,0.1,0,0.2,0.2,0.2
	c3.3,0.4,6.4,0.8,9.5,1.2c-2-0.3-4-0.7-6-1L0.5,45.1z M172.8,44.8c-0.3-0.1-0.6-0.1-0.9-0.2c-1.7-0.3-3.4-0.5-5.1-0.8
	c1.4,0.3,2.8,0.6,4.1,0.9c0.6,0.1,1.1,0.1,1.7,0.2l-0.2,0.1c0.2,0,0.4,0,0.5,0C173.1,44.9,173,44.8,172.8,44.8z M29,47.6
	c-1.7,0-3.4-0.1-5-0.2c0.8,0.1,1.6,0.3,2.4,0.4c2.2,0.1,4.6,0.1,7.1,0.2c-1.1-0.1-2.1-0.1-3-0.2C30,47.7,29.5,47.7,29,47.6z
	 M22.4,47c0.6,0,1.2,0.1,1.8,0.1C23.1,47,22,46.8,21,46.7c-0.5,0-1,0-1.4,0c0.5,0.1,1,0.2,1.6,0.3C21.5,47,22,47,22.4,47z
	 M13.3,46.8c0,0,0.4,0,1.2,0c-0.1,0-0.2,0-0.4,0C13.6,46.7,13.2,46.8,13.3,46.8z M35.5,49.3c-2.4,0-4.7,0-7-0.1
	C19,48.8,9.7,48,0.4,46.7l-0.2,0.2c9.4,1.3,18.8,2.1,28.2,2.5c2.4,0.1,4.7,0.1,7.1,0.1c1.2,0,2.4,0,3.7,0c-0.5,0-1.1-0.1-1.6-0.2
	C36.9,49.3,36.2,49.3,35.5,49.3z M170.9,44.7c-10-1.4-20.1-2.2-30.2-2.4c-0.8,0-1.6,0-2.4,0c-4.2,0-8.4,0.1-12.6,0.3
	c-1.3,0.1-2.6,0.3-3.9,0.4c5.4-0.3,10.9-0.6,16.5-0.6c0.8,0,1.6,0,2.4,0c10.6,0.3,21.2,1.1,31.7,2.6l0,0h0
	C171.9,44.9,171.4,44.8,170.9,44.7L170.9,44.7z M68,47.9c5.8-0.5,11.5-1,17.2-1.6c1.2-0.2,2.3-0.3,3.4-0.5
	c-5.7,0.6-11.4,1.1-17.2,1.6C70.3,47.6,69.2,47.8,68,47.9z M56.9,48.6c-5.7,0.4-11.6,0.6-17.4,0.7c1.5,0,3,0.1,4.5,0.1
	c5.5-0.2,11-0.4,16.3-0.8C59.2,48.5,58,48.5,56.9,48.6z M6.6,22.6 M22.9,1h-1.6 M8.2,22.6 M76.2,40.9h1.2l0.5-0.1 M19.9,29.3
	L19.9,29.3c1.5,2.1,3.9,3.4,6.4,3.4c5.1,0,8.3-4,8.3-8.9s-3.2-8.7-8.2-8.7c-2.6,0-5,1.2-6.4,3.3h-0.1V2.2h-1.6v30.1h1.6L19.9,29.3
	L19.9,29.3L19.9,29.3z M26.5,16.7c3.9,0,6.5,3.5,6.5,7.1c0,3.9-2.5,7.4-6.6,7.4c-4.1,0-6.6-3.4-6.6-7.3
	C19.8,19.8,22.2,16.7,26.5,16.7L26.5,16.7z M42.2,2.2h1.6v30.1h-1.6V2.2z M58.7,32.7c1.9,0.1,3.8-0.8,5-2.3c1-1.4,1-3.1,1-4.9V15.5
	h-1.6V25c0,3.2-0.4,6.2-4.4,6.2s-4.4-2.9-4.4-6.2v-9.5h-1.6v10.1c0,1.7,0,3.4,1,4.9C55,31.9,56.8,32.8,58.7,32.7z"/>
<g>
	<path class="st0" d="M81.6,35.6c-1.5-1-2.3-2.2-2.3-3.6h1.6c0,1.1,0.6,2,1.8,2.7c1.2,0.7,2.6,1.1,4.3,1.1c1.8,0,3.3-0.4,4.4-1.3
		c1.1-0.9,1.7-2,1.7-3.5v-3.2c-0.7,1.3-1.8,2.3-3.4,2.9c-1,0.4-2.1,0.5-3.1,0.5c-2.1-0.1-3.8-0.8-5.1-2.2c-1.4-1.5-2.1-3.4-2.1-5.8
		c0-2.4,0.7-4.3,2.1-5.8c1.4-1.4,3.3-2.2,5.6-2.2c1.4,0,2.6,0.3,3.7,1c1.1,0.6,1.9,1.5,2.3,2.5v-2.9h1.7v15.3c0,1.9-0.7,3.3-2.1,4.4
		c-1.3,1.1-3.2,1.6-5.7,1.6C84.9,37.1,83.1,36.6,81.6,35.6z M91.4,28.1c1.2-1.3,1.8-3,1.8-4.9c0-1.9-0.6-3.5-1.8-4.9
		c-1.2-1.3-2.6-2-4.3-2c-1.8,0-3.3,0.6-4.4,1.9c-1.1,1.3-1.7,2.9-1.7,5c0,2.1,0.6,3.7,1.7,5c1.1,1.3,2.6,1.9,4.4,1.9
		C88.7,30.1,90.2,29.4,91.4,28.1z"/>
	<path class="st0" d="M103.6,31.5V15.8h1.7v3.5c0.5-1.1,1.2-2,2.1-2.8c1-0.7,2-1,3-1h1v1.7c-0.1,0-0.2,0-0.3-0.1
		c-0.1,0-0.1-0.1-0.2-0.1c-1.3,0-2.5,0.5-3.6,1.5c-1.1,1-1.8,2.2-2.1,3.7v9.2H103.6z"/>
	<path class="st0" d="M119.2,30.4c-1.2-1-1.8-2.1-1.8-3.5V15.8h1.7V27c0,1,0.4,1.9,1.3,2.6c0.9,0.7,1.9,1.1,3.2,1.1
		c1.5,0,2.8-0.5,3.9-1.5c1.1-1,1.9-2.2,2.2-3.7v-9.7h1.7v15.7h-1.7v-2.8c-0.5,1-1.3,1.7-2.4,2.3c-1.1,0.6-2.3,0.8-3.7,0.8
		C121.8,31.9,120.4,31.4,119.2,30.4z"/>
	<path class="st0" d="M145.1,31.4c-1.5-0.7-2.6-1.7-3.3-3v3.1H140L140,1h1.7l0,18.3c0.5-1.1,1.3-2,2.4-2.8c1.1-0.7,2.4-1,3.8-1
		c2.4,0,4.2,0.7,5.6,2.2c1.4,1.5,2.1,3.5,2.1,6s-0.7,4.5-2.1,6c-1.3,1.4-3.1,2.2-5.3,2.2C147.2,32,146.1,31.9,145.1,31.4z
		 M152.5,28.8c1.1-1.3,1.7-3,1.7-5.1c0-2.1-0.6-3.8-1.7-5.1c-1.1-1.3-2.7-1.9-4.5-1.9c-1.7,0-3.2,0.7-4.4,2.1
		c-1.2,1.3-1.8,3-1.8,4.9c0,1.9,0.6,3.6,1.8,4.9c1.2,1.4,2.7,2.1,4.4,2.1C149.9,30.8,151.4,30.1,152.5,28.8z"/>
</g>
<path class="st0" d="M133.9-5.8"/>
<path class="st0" d="M138.4,8.4"/>
<path class="st0" d="M133.9-5.8"/>
<path class="st0" d="M138.4,8.4"/>
</svg>
